<?xml version="1.0" encoding="UTF-8" standalone="no"?>
<!-- Created with Inkscape (http://www.inkscape.org/) -->

<svg
   xmlns:dc="http://purl.org/dc/elements/1.1/"
   xmlns:cc="http://creativecommons.org/ns#"
   xmlns:rdf="http://www.w3.org/1999/02/22-rdf-syntax-ns#"
   xmlns:svg="http://www.w3.org/2000/svg"
   xmlns="http://www.w3.org/2000/svg"
   xmlns:xlink="http://www.w3.org/1999/xlink"
   xmlns:sodipodi="http://sodipodi.sourceforge.net/DTD/sodipodi-0.dtd"
   xmlns:inkscape="http://www.inkscape.org/namespaces/inkscape"
   width="230"
   height="270"
   viewBox="0 0 230 270"
   id="svg2"
   version="1.1"
   inkscape:version="0.91 r13725"
   sodipodi:docname="login.svg">
  <defs
     id="defs4">
    <pattern
       y="0"
       x="0"
       height="6"
       width="6"
       patternUnits="userSpaceOnUse"
       id="EMFhbasepattern" />
    <linearGradient
       inkscape:collect="always"
       xlink:href="#linearGradient4166"
       id="linearGradient4172"
       x1="146.42859"
       y1="920.21942"
       x2="147.85713"
       y2="786.64795"
       gradientUnits="userSpaceOnUse"
       gradientTransform="matrix(0.77855724,0,0,0.9993795,-1.7834233,5.2087514)" />
    <linearGradient
       inkscape:collect="always"
       id="linearGradient4166">
      <stop
         style="stop-color:#161616;stop-opacity:1"
         offset="0"
         id="stop4168" />
      <stop
         style="stop-color:#3c3c3c;stop-opacity:1"
         offset="1"
         id="stop4170" />
    </linearGradient>
  </defs>
  <sodipodi:namedview
     id="base"
     pagecolor="#ffffff"
     bordercolor="#666666"
     borderopacity="1.0"
     inkscape:pageopacity="0.0"
     inkscape:pageshadow="2"
     inkscape:zoom="2.8"
     inkscape:cx="117.66522"
     inkscape:cy="139.16228"
     inkscape:document-units="px"
     inkscape:current-layer="layer1"
     showgrid="false"
     units="px"
     inkscape:window-width="1920"
     inkscape:window-height="1018"
     inkscape:window-x="-8"
     inkscape:window-y="-8"
     inkscape:window-maximized="1" />
  <metadata
     id="metadata7">
    <rdf:RDF>
      <cc:Work
         rdf:about="">
        <dc:format>image/svg+xml</dc:format>
        <dc:type
           rdf:resource="http://purl.org/dc/dcmitype/StillImage" />
        <dc:title />
      </cc:Work>
    </rdf:RDF>
  </metadata>
  <g
     inkscape:label="Layer 1"
     inkscape:groupmode="layer"
     id="layer1"
     transform="translate(0,-782.36216)">
    <path
       inkscape:connector-curvature="0"
       style="fill:url(#linearGradient4172);fill-opacity:1;fill-rule:evenodd;stroke:#282828;stroke-width:0.88208514;stroke-linecap:butt;stroke-linejoin:bevel;stroke-miterlimit:4;stroke-dasharray:none;stroke-opacity:1"
       d="m 9.7215477,782.80322 c -5.1415533,0 -9.28050512,4.77531 -9.28050512,10.70732 l 0,247.70326 c 0,5.9321 4.13895182,10.7073 9.28050512,10.7073 l 210.5569023,0 c 5.14157,0 9.28051,-4.7752 9.28051,-10.7073 l 0,-247.70326 c 0,-5.93201 -4.13894,-10.70732 -9.28051,-10.70732 l -210.5569023,0 z"
       id="rect3336" />
    <path
       inkscape:connector-curvature="0"
       style="font-style:normal;font-weight:normal;font-size:19.69691467px;line-height:125%;font-family:sans-serif;letter-spacing:0px;word-spacing:0px;fill:#c8c8c8;fill-opacity:1;stroke:#646464;stroke-width:0.72069466;stroke-linecap:round;stroke-linejoin:bevel;stroke-miterlimit:10;stroke-dasharray:0.1801737, 0.1801737;stroke-dashoffset:0;stroke-opacity:0.39053255"
       d="m 85.360347,820.7225 0,16.55584 9.437938,0 0,-1.88558 -7.386384,0 0,-14.67026 -2.051554,0 z m 43.765183,0 0,16.55584 2.0535,0 0,-16.55584 -2.0535,0 z m -28.22162,3.83752 c -1.632251,0 -2.91241,0.57596 -3.840287,1.72926 -0.921113,1.15329 -1.380784,2.74937 -1.380784,4.7898 0,2.03304 0.459671,3.63149 1.380784,4.79218 0.927877,1.15327 2.208036,1.72925 3.840287,1.72925 1.62547,0 2.90261,-0.57598 3.83048,-1.72925 0.92787,-1.16069 1.39058,-2.75914 1.39058,-4.79218 0,-2.04043 -0.46271,-3.63651 -1.39058,-4.7898 -0.92787,-1.1533 -2.20501,-1.72926 -3.83048,-1.72926 z m 12.15045,0 c -1.39519,0 -2.52012,0.58042 -3.37349,1.7411 -0.85338,1.1607 -1.27878,2.70185 -1.27878,4.62399 0,1.91473 0.4254,3.45145 1.27878,4.61213 0.85337,1.16068 1.9783,1.7411 3.37349,1.7411 0.83983,0 1.56058,-0.18021 2.16336,-0.54246 0.60277,-0.36224 1.09673,-0.90971 1.48277,-1.6416 l 0,1.00913 c 0,1.41203 -0.30444,2.46508 -0.91399,3.16001 -0.60955,0.70233 -1.52586,1.05415 -2.75174,1.05415 -0.55539,0 -1.10072,-0.0793 -1.63576,-0.23451 -0.53506,-0.15526 -1.07735,-0.39484 -1.62596,-0.72012 l 0,1.98508 c 0.54861,0.22178 1.11409,0.38448 1.69656,0.48799 0.58246,0.11077 1.20239,0.1658 1.85935,0.1658 1.77449,0 3.09196,-0.51658 3.95208,-1.55159 0.86015,-1.02761 1.28861,-2.59962 1.28861,-4.714 l 0,-10.87773 -1.86915,0 0,1.8856 c -0.38604,-0.73188 -0.88,-1.27937 -1.48277,-1.64161 -0.60278,-0.36224 -1.32353,-0.54246 -2.16336,-0.54246 z m 27.61163,0 c -0.7924,0 -1.493,0.18468 -2.10255,0.5543 -0.60277,0.36966 -1.12795,0.9281 -1.57494,1.67479 l 0,-1.93062 -1.87896,0 0,12.41985 1.87896,0 0,-7.01888 c 0,-1.21244 0.29228,-2.17108 0.87475,-2.87341 0.58246,-0.70231 1.37782,-1.05176 2.38695,-1.05176 0.83982,0 1.46883,0.29006 1.88875,0.8741 0.41992,0.58403 0.63157,1.4658 0.63157,2.64125 l 0,7.4287 1.86913,0 0,-7.49502 c 0,-1.71515 -0.33565,-3.01463 -1.00617,-3.89438 -0.6705,-0.88713 -1.66035,-1.32892 -2.96749,-1.32892 z m -27.15463,1.70795 c 1.00915,0 1.79038,0.40435 2.34575,1.21757 0.56216,0.81323 0.84338,1.96098 0.84338,3.43957 0,1.47117 -0.28122,2.61213 -0.84338,3.42535 -0.55537,0.81321 -1.3366,1.21995 -2.34575,1.21995 -1.00238,0 -1.78558,-0.40674 -2.34773,-1.21995 -0.55536,-0.81322 -0.8316,-1.95418 -0.8316,-3.42535 0,-1.47859 0.27624,-2.62634 0.8316,-3.43957 0.56215,-0.81322 1.34535,-1.21757 2.34773,-1.21757 z m -12.60745,0.0212 c 0.9956,0 1.78487,0.43317 2.36734,1.29812 0.58245,0.85758 0.87278,2.02052 0.87278,3.49169 0,1.47857 -0.29033,2.64831 -0.87278,3.50588 -0.58247,0.85758 -1.37174,1.28629 -2.36734,1.28629 -1.00914,0 -1.804495,-0.42663 -2.386933,-1.27681 -0.575684,-0.85757 -0.864962,-2.02939 -0.864962,-3.51536 0,-1.48597 0.292299,-2.65334 0.874758,-3.50353 0.582458,-0.85757 1.37476,-1.28628 2.377137,-1.28628 z"
       id="text4138" />
    <path
       inkscape:connector-curvature="0"
       style="font-style:normal;font-weight:normal;font-size:11.00582314px;line-height:125%;font-family:sans-serif;letter-spacing:0px;word-spacing:0px;fill:#c8c8c8;fill-opacity:1;stroke:#646464;stroke-width:0.35442665;stroke-linecap:round;stroke-linejoin:bevel;stroke-miterlimit:10;stroke-dasharray:0.08860667, 0.08860667;stroke-dashoffset:0;stroke-opacity:0.39053255"
       d="m 42.857984,863.5394 0,1.27066 0.919813,0 0,-1.27066 -0.919813,0 z m 2.838525,0 0,8.48644 0.918098,0 0,-8.48644 -0.918098,0 z m -25.519296,0.3433 0,8.14314 4.807112,0 0,-0.92736 -3.797893,0 0,-2.94952 3.552036,0 0,-0.92736 -3.552036,0 0,-2.41154 3.706771,0 0,-0.92736 -4.71599,0 z m 9.122511,1.88821 c -0.402991,0 -0.750521,0.0876 -1.043605,0.26584 -0.293083,0.17818 -0.544944,0.45446 -0.754764,0.82898 l 0,-0.94828 -0.923255,0 0,6.10839 0.923255,0 0,-3.45195 c 0,-0.59265 0.137915,-1.0613 0.414346,-1.40672 0.276432,-0.34905 0.649653,-0.52333 1.119253,-0.52333 0.396329,0 0.690434,0.14134 0.880273,0.42493 0.189837,0.27998 0.283681,0.71304 0.283681,1.30209 l 0,3.65498 0.924974,0 0,-3.45195 c 0,-0.5963 0.137916,-1.06758 0.414347,-1.413 0.276431,-0.34542 0.653307,-0.51705 1.129568,-0.51705 0.389669,0 0.678399,0.14134 0.868238,0.42493 0.189838,0.28361 0.285401,0.71668 0.285401,1.30209 l 0,3.65498 0.923254,0 0,-3.6864 c 0,-0.82172 -0.158124,-1.45507 -0.474522,-1.89866 -0.316397,-0.44722 -0.765079,-0.66987 -1.347917,-0.66987 -0.432965,0 -0.80984,0.10581 -1.129568,0.32027 -0.319728,0.21454 -0.593732,0.54767 -0.823537,0.99854 -0.13655,-0.42905 -0.347992,-0.75635 -0.634415,-0.98178 -0.283091,-0.22544 -0.628687,-0.33703 -1.035007,-0.33703 z m 9.248014,0 c -0.299741,0 -0.608577,0.0361 -0.924972,0.10886 -0.316397,0.0691 -0.641886,0.17429 -0.978266,0.31608 l 0,0.92736 c 0.27976,-0.16726 0.570321,-0.29317 0.87339,-0.37681 0.303077,-0.0836 0.613841,-0.1256 0.933573,-0.1256 0.502908,0 0.892684,0.12857 1.169106,0.38309 0.279769,0.25088 0.421229,0.60584 0.421229,1.06762 l 0,0.0984 -1.289458,0 c -0.83596,0 -1.466516,0.17428 -1.889496,0.52334 -0.419644,0.34905 -0.629255,0.86816 -0.629255,1.55535 0,0.58904 0.169083,1.06033 0.505471,1.41301 0.339706,0.34907 0.795696,0.52334 1.368542,0.52334 0.452953,0 0.835414,-0.0871 1.148483,-0.26167 0.313068,-0.17816 0.575891,-0.4539 0.785713,-0.82478 l 0,0.92737 0.918098,0 0,-3.48544 c 0,-0.93081 -0.200368,-1.62474 -0.600029,-2.08289 -0.399661,-0.45812 -1.002816,-0.68661 -1.812129,-0.68661 z m 4.310246,0.14654 0,6.10839 0.919813,0 0,-6.10839 -0.919813,0 z m 5.910888,0.33283 0,1.3858 1.053915,0 0,-1.3858 -1.053915,0 z m -9.641729,2.70461 0.914655,0 0,0.22398 c 0,0.65449 -0.156187,1.17998 -0.465928,1.57631 -0.306406,0.39267 -0.714561,0.58823 -1.224125,0.58823 -0.369687,-10e-6 -0.66207,-0.1026 -0.878556,-0.30982 -0.213148,-0.21089 -0.319785,-0.49566 -0.319785,-0.852 0,-0.44723 0.143396,-0.76285 0.429819,-0.94827 0.286423,-0.18544 0.801216,-0.27843 1.54392,-0.27843 z m 9.641729,1.68515 0,1.3858 1.053915,0 0,-1.3858 -1.053915,0 z"
       id="text4138-0-9" />
    <text
       xml:space="preserve"
       style="font-style:normal;font-weight:normal;font-size:10.42976379px;line-height:125%;font-family:sans-serif;letter-spacing:0px;word-spacing:0px;fill:#c8c8c8;fill-opacity:1;stroke:#646464;stroke-width:0.34579113;stroke-linecap:round;stroke-linejoin:bevel;stroke-miterlimit:10;stroke-dasharray:0.0864478, 0.0864478;stroke-dashoffset:0;stroke-opacity:0.39053255"
       x="20.604649"
       y="869.31409"
       id="text4138-0-9-5"
       sodipodi:linespacing="125%"
       transform="scale(0.93270949,1.0721452)"><tspan
         sodipodi:role="line"
         id="tspan4140-1-4-3"
         x="20.604649"
         y="869.31409"
         style="stroke:#646464;stroke-width:0.34579113;stroke-linecap:round;stroke-linejoin:bevel;stroke-miterlimit:10;stroke-dasharray:0.0864478, 0.0864478;stroke-dashoffset:0;stroke-opacity:0.39053255">Password:</tspan></text>
    <rect
       style="fill:#050505;fill-rule:evenodd;stroke:#000000;stroke-width:1.04076707px;stroke-linecap:butt;stroke-linejoin:miter;stroke-opacity:1;fill-opacity:1"
       id="rect3343"
       width="188.95923"
       height="23.959232"
       x="20.520384"
       y="882.88257"
       ry="6.0714288" />
    <rect
       style="fill:#050505;fill-opacity:1;fill-rule:evenodd;stroke:#000000;stroke-width:1.04076707px;stroke-linecap:butt;stroke-linejoin:miter;stroke-opacity:1"
       id="rect3343-2"
       width="188.95923"
       height="23.959232"
       x="20.520384"
       y="942.88257"
       ry="6.0714288" />
  </g>
</svg>
